# xmcd CD database file
# Copyright (C) 1997 Ti Kan
#
# Track frame offsets:
#  150
#  15307
#  28985
#  43257
#  57677
#  72992
#  84855
#  98997
#  114810
#  130082
#
# Disc length: 1972 seconds
#
# Revision: 2
# Processed by: cddbd v1.4PL0 Copyright (c) Steve Scherf et al.
# Submitted via: Gronk 1.4
#
DISCID=8007b20a
DTITLE=Michael White - Familiar Ground
DYEAR=1900
DGENRE=country
TTITLE0=The River and the Rain
TTITLE1=Familiar Ground
TTITLE2=Professional Fool
TTITLE3=She Likes to Dance
TTITLE4=Back to Texarkana
TTITLE5=One of My Near Mrs.
TTITLE6=If I Had a Mind to
TTITLE7=Up to Down
TTITLE8=The Boy Next Door
TTITLE9=Me or the Misery
EXTD=
EXTT0=
EXTT1=
EXTT2=
EXTT3=
EXTT4=
EXTT5=
EXTT6=
EXTT7=
EXTT8=
EXTT9=
PLAYORDER=
